<svg xmlns="http://www.w3.org/2000/svg" xmlns:xlink="http://www.w3.org/1999/xlink" viewBox="0 0 595.49 291.96"><defs><style>.cls-1,.cls-21{fill:none;}.cls-2,.cls-3{font-size:12px;}.cls-2,.cls-22,.cls-3,.cls-6{fill:#d7d7d8;}.cls-2,.cls-22{font-family:ArialMT, Arial;}.cls-3{font-family:AdobeMingStd-Light-B5pc-H, Adobe Ming Std;}.cls-4{opacity:0.8;}.cls-5{clip-path:url(#clip-path);}.cls-7{clip-path:url(#clip-path-3);}.cls-8{clip-path:url(#clip-path-5);}.cls-9{clip-path:url(#clip-path-6);}.cls-10{clip-path:url(#clip-path-7);}.cls-11{opacity:0.6;}.cls-12{clip-path:url(#clip-path-9);}.cls-13{clip-path:url(#clip-path-11);}.cls-14{clip-path:url(#clip-path-13);}.cls-15{clip-path:url(#clip-path-15);}.cls-16{opacity:0.2;}.cls-17{clip-path:url(#clip-path-17);}.cls-18{clip-path:url(#clip-path-19);}.cls-19{clip-path:url(#clip-path-21);}.cls-20{clip-path:url(#clip-path-23);}.cls-21{stroke:#d7d7d8;stroke-miterlimit:10;}.cls-22{font-size:10.96px;}</style><clipPath id="clip-path"><rect class="cls-1" x="55.09" y="81.53" width="14.53" height="167.75"/></clipPath><clipPath id="clip-path-3"><rect class="cls-1" x="265.24" y="85.72" width="14.53" height="163.56"/></clipPath><clipPath id="clip-path-5"><rect class="cls-1" x="370.8" y="211.14" width="14.53" height="38.14"/></clipPath><clipPath id="clip-path-6"><rect class="cls-1" x="370.8" y="211.14" width="14.53" height="38.14"/></clipPath><clipPath id="clip-path-7"><rect class="cls-1" x="160.16" y="144.48" width="14.53" height="104.8"/></clipPath><clipPath id="clip-path-9"><rect class="cls-1" x="73.81" y="88.31" width="14.53" height="160.97"/></clipPath><clipPath id="clip-path-11"><rect class="cls-1" x="284.45" y="168.79" width="14.53" height="80.49"/></clipPath><clipPath id="clip-path-13"><rect class="cls-1" x="388.56" y="236.32" width="14.53" height="12.96"/></clipPath><clipPath id="clip-path-15"><rect class="cls-1" x="178.41" y="168.79" width="14.53" height="80.49"/></clipPath><clipPath id="clip-path-17"><rect class="cls-1" x="92.86" y="124.78" width="14.53" height="124.5"/></clipPath><clipPath id="clip-path-19"><rect class="cls-1" x="303.01" y="162.23" width="14.53" height="87.05"/></clipPath><clipPath id="clip-path-21"><rect class="cls-1" x="407.61" y="236.32" width="14.53" height="12.96"/></clipPath><clipPath id="clip-path-23"><rect class="cls-1" x="197.45" y="183.54" width="14.53" height="65.74"/></clipPath></defs><g id="圖層_2" data-name="圖層 2"><g id="Layer_1" data-name="Layer 1"><text class="cls-2" transform="translate(46.55 270.05)">usage time</text><text class="cls-3" transform="translate(46.55 288.05)">【</text><text class="cls-2" transform="translate(58.55 288.05)">Minute</text><text class="cls-3" transform="translate(94.56 288.05)">】</text><text class="cls-2" transform="translate(154.67 270.02)">usage count</text><text class="cls-3" transform="translate(154.67 288.02)">【</text><text class="cls-2" transform="translate(166.67 288.02)">one day</text><text class="cls-3" transform="translate(209.38 288.02)">】</text><text class="cls-2" transform="translate(266.54 270.06)">Use days</text><text class="cls-3" transform="translate(266.54 288.06)">【</text><text class="cls-2" transform="translate(278.54 288.06)">week</text><text class="cls-3" transform="translate(306.55 288.06)">】</text><text class="cls-2" transform="translate(354.38 270)">A</text><text class="cls-2" transform="translate(362.16 270)">verage mileage</text><text class="cls-3" transform="translate(361.95 288)">【</text><text class="cls-2" transform="translate(373.95 288)">Kilometer</text><text class="cls-3" transform="translate(424.64 288)">】</text><g class="cls-4"><g class="cls-5"><g class="cls-5"><rect class="cls-6" x="55.09" y="81.53" width="14.53" height="167.75"/></g></g></g><g class="cls-4"><g class="cls-7"><g class="cls-7"><rect class="cls-6" x="265.24" y="85.72" width="14.53" height="163.56"/></g></g></g><g class="cls-4"><g class="cls-8"><g class="cls-9"><rect class="cls-6" x="370.81" y="211.14" width="14.53" height="38.14"/></g></g></g><g class="cls-4"><g class="cls-10"><g class="cls-10"><rect class="cls-6" x="160.17" y="144.48" width="14.53" height="104.8"/></g></g></g><g class="cls-11"><g class="cls-12"><g class="cls-12"><rect class="cls-6" x="73.81" y="88.31" width="14.53" height="160.97"/></g></g></g><g class="cls-11"><g class="cls-13"><g class="cls-13"><rect class="cls-6" x="284.45" y="168.79" width="14.53" height="80.49"/></g></g></g><g class="cls-11"><g class="cls-14"><g class="cls-14"><rect class="cls-6" x="388.56" y="236.32" width="14.53" height="12.96"/></g></g></g><g class="cls-11"><g class="cls-15"><g class="cls-15"><rect class="cls-6" x="178.41" y="168.79" width="14.53" height="80.49"/></g></g></g><g class="cls-16"><g class="cls-17"><g class="cls-17"><rect class="cls-6" x="92.86" y="124.79" width="14.53" height="124.5"/></g></g></g><g class="cls-16"><g class="cls-18"><g class="cls-18"><rect class="cls-6" x="303.01" y="162.23" width="14.53" height="87.05"/></g></g></g><g class="cls-16"><g class="cls-19"><g class="cls-19"><rect class="cls-6" x="407.61" y="236.32" width="14.53" height="12.96"/></g></g></g><g class="cls-16"><g class="cls-20"><g class="cls-20"><rect class="cls-6" x="197.45" y="183.54" width="14.53" height="65.74"/></g></g></g><rect class="cls-21" x="111.26" y="144.48" width="14.53" height="104.8"/><rect class="cls-21" x="321.25" y="52.56" width="14.53" height="196.72"/><rect class="cls-21" x="427.28" y="183.54" width="14.53" height="65.74"/><rect class="cls-21" x="216.66" y="187.03" width="14.53" height="62.25"/><text class="cls-22" transform="translate(0 9.4)">7</text><text class="cls-22" transform="translate(0 50.22)">6</text><text class="cls-22" transform="translate(0 91.04)">5</text><text class="cls-22" transform="translate(0 131.86)">4</text><text class="cls-22" transform="translate(0 172.68)">3</text><text class="cls-22" transform="translate(0 213.5)">1</text><text class="cls-22" transform="translate(0 254.32)">0</text><line class="cls-21" x1="13.77" y1="249.28" x2="456.03" y2="249.28"/><line class="cls-21" x1="13.77" y1="208.79" x2="456.03" y2="208.79"/><line class="cls-21" x1="13.77" y1="168.29" x2="456.03" y2="168.29"/><line class="cls-21" x1="13.77" y1="127.8" x2="456.03" y2="127.8"/><line class="cls-21" x1="13.77" y1="87.3" x2="456.03" y2="87.3"/><line class="cls-21" x1="13.77" y1="46.81" x2="456.03" y2="46.81"/><line class="cls-21" x1="13.77" y1="6.31" x2="456.03" y2="6.31"/><rect class="cls-6" x="486.39" y="97.94" width="17.3" height="15.61"/><text class="cls-2" transform="translate(522.12 110.55)">Commute</text><text class="cls-2" transform="translate(522.12 249.09)">entertainment</text><text class="cls-2" transform="translate(522.12 214.46)">shopping</text><text class="cls-2" transform="translate(522.12 179.83)">relativeg</text><text class="cls-2" transform="translate(522.12 145.19)">business</text></g></g></svg>