<svg xmlns="http://www.w3.org/2000/svg" viewBox="0 0 537.91 85.43"><defs><style>.cls-1,.cls-2{fill:#d7d7d8;}.cls-2{fill-rule:evenodd;}</style></defs><g id="圖層_2" data-name="圖層 2"><g id="Layer_1" data-name="Layer 1"><path class="cls-1" d="M402.71,62.15a9.85,9.85,0,0,1,.46-1.39,2.26,2.26,0,0,1,1.28-1.34c.28-.09.24-.25.12-.44a1.89,1.89,0,0,1,.14-2.23,6.17,6.17,0,0,0,.38-.72c2.11-3.49,4.23-7,6.33-10.45a8.75,8.75,0,0,1,1.6-2.26,4.37,4.37,0,0,1,2.12-1.14,16.37,16.37,0,0,1,2-.1l1,0a2,2,0,0,1,.23,0c.81,0,1.61.06,2.41.06s1.33,0,2-.06H427a4.77,4.77,0,0,1,3.31,1.36A8.25,8.25,0,0,1,432,45.94q2.85,5.55,5.68,11.12a4.25,4.25,0,0,1,.44,1.06,2.09,2.09,0,0,1-1,2.23,6.08,6.08,0,0,1-1.31.59,1.55,1.55,0,0,1-1.7-1c-.44-.85-.85-1.71-1.3-2.55-.7-1.29-1.42-2.56-2.12-3.85-.57-1-1.12-2.09-1.68-3.14a.59.59,0,0,0-.27-.28q-1.55,14.64-3.08,29.3h-8.31c-.94-9.77-1.88-19.54-2.83-29.43l-.3.41q-2.24,3.4-4.48,6.81c-.43.64-.87,1.26-1.31,1.89a.58.58,0,0,0,0,.88,2.78,2.78,0,0,1,.79,1.75c0,.32.14.41.45.41,1.13,0,2.25,0,3.37,0,.43,0,.55.12.55.55,0,3.14,0,6.27,0,9.41,0,.44-.12.54-.65.54H398.64c-.4,0-.53-.13-.53-.54V62.67c0-.41.12-.52.55-.52h4Zm5.4,0a1.72,1.72,0,0,0-1-1.69,2.35,2.35,0,0,0-2.32.14,1.89,1.89,0,0,0-.78,1.55Z"/><path class="cls-1" d="M415.14,34a6.27,6.27,0,1,1,6.26,6.28A6.25,6.25,0,0,1,415.14,34Z"/><path class="cls-1" d="M499.64,21.57c.6-1.88,1.88-2.49,3.68-2.48,5.39.05,10.78,0,16.16,0,1.6,0,2.85.45,3.48,2a1,1,0,0,0,.76.4,9.17,9.17,0,0,1,9,9.39q-.21,12,0,24a9.24,9.24,0,0,1-9.31,9.35c-8.43-.09-16.86,0-25.29,0a9,9,0,0,1-9.28-9.35c0-7.84.12-15.67,0-23.51a9.26,9.26,0,0,1,9.83-9.85C498.92,21.59,499.25,21.57,499.64,21.57Zm10.85,6.6c-4.16,0-8.33,0-12.49,0-2.07,0-3.33,1.14-3.36,3.08,0,2.88,0,5.75,0,8.63a2.7,2.7,0,0,0,1.57,2.65,5.11,5.11,0,0,0,2,.37c8.16,0,16.32,0,24.49,0a7.83,7.83,0,0,0,1.08-.07,2.8,2.8,0,0,0,2.51-2.75q.06-4.56,0-9.12A2.75,2.75,0,0,0,524,28.31a11.91,11.91,0,0,0-2-.13Zm15.83,26.49a3.17,3.17,0,0,0-3.26-3.12,3.22,3.22,0,0,0-3.25,3.17,3.27,3.27,0,0,0,3.35,3.19A3.2,3.2,0,0,0,526.32,54.66ZM497.9,58.13A3.24,3.24,0,0,0,501.18,55a3.3,3.3,0,0,0-3.34-3.22,3.24,3.24,0,0,0-3.2,3.23A3.19,3.19,0,0,0,497.9,58.13Z"/><path class="cls-1" d="M499.93,65.18c-.61,1.34-1.14,2.49-1.72,3.74h25.93c-.51-1.23-1-2.39-1.49-3.56a2.33,2.33,0,0,1,2.92,1.19c3.86,6,7.82,11.93,11.74,17.89.18.27.33.54.6,1-2.15,0-4.12,0-6.09,0-.22,0-.53-.35-.65-.6-.56-1.19-1.09-2.4-1.59-3.62a1,1,0,0,0-1-.68c-11.74,0-23.47,0-35.21,0a1.32,1.32,0,0,0-.94.6c-.64,1.19-1.16,2.44-1.78,3.65a1.19,1.19,0,0,1-.75.6c-2.11,0-4.22,0-6.48,0,.2-.36.32-.61.47-.83,4.43-6.22,8.88-12.42,13.27-18.66C497.9,64.83,498.88,65.46,499.93,65.18Zm-4.77,10.11H527c-.53-1.24-1-2.39-1.53-3.51a1,1,0,0,0-.8-.36q-13.5,0-27,0a1,1,0,0,0-.78.38C496.27,72.9,495.75,74,495.16,75.29Z"/><path class="cls-2" d="M461.64,56.29h-8.36c-.55,0-.78-.18-.79-.72,0-1.33,0-2.66,0-4,0-.5.25-.69.76-.69h8.22v-.83c0-.53,0-1.07,0-1.61a.93.93,0,0,1,.29-.6c.24-.17.5,0,.71.16l3.75,2.88c.8.61,1.58,1.24,2.36,1.87.61.5.61,1,0,1.48-2,1.66-4,3.33-6,5a.78.78,0,0,1-.66.18c-.16-.07-.28-.4-.29-.62C461.62,58,461.64,57.16,461.64,56.29Z"/><path class="cls-2" d="M0,79.17,2.69,79v-.87c0-4.17,0-8.35,0-12.52,0-.59.2-.76.75-.78.79,0,1.58-.17,2.44-.26V45.11h7.57c.11-1.2.21-2.33.32-3.53h2.47c0,.8.09,1.59.11,2.39a.78.78,0,0,0,.44.8,2.15,2.15,0,0,1,1.16,2.15c-.05,3.83-.13,7.67-.15,11.5,0,4.59,0,9.19,0,13.78V73h9.11V34.61H34V22.27h8.57V49.88l3.83-3.19c.18.65.33,1.23.51,1.88l2.39-1.87c.18.63.32,1.19.5,1.83l2.43-1.86.37,1.95,2.45-1.93.53,1.79,2.51-1.83V75.41h5v-.8c0-4.44,0-8.87,0-13.31a4,4,0,0,1,.33-1.61,3.6,3.6,0,0,1,3.74-2.18,3.82,3.82,0,0,1,3,3.58c0,3.75,0,7.5-.09,11.24,0,.58,0,1.16,0,1.73a1.57,1.57,0,0,0,1.3,1.48c1.15.13,2.3.26,3.45.29,1.41,0,2.06-.51,2.12-1.9.12-2.51.13-5,.15-7.52,0-2.13,0-4.26,0-6.39,0-1.52.45-1.93,2-1.88,1.08,0,2.16,0,3.31,0v9.69h7.52V58.32l4-.27v-.71q0-15,0-30a4.86,4.86,0,0,0-.89-3,3.45,3.45,0,0,1-.32-2.32,4.53,4.53,0,0,1,0-.53c.08-.52,0-1.22.28-1.5s1-.18,1.54-.24l.5-.08-1.29-1.15,6-2.4c0-.07,0-.1,0-.11-.49-1.76-.27-2.12,1.51-2.53a11,11,0,0,1,6.84.58,7.54,7.54,0,0,0,2,.54l-.72-1.14a1.75,1.75,0,0,1,.29-2.46,4.17,4.17,0,0,1,3.59-1.18c.57.07,1.14.15,1.72.18a.54.54,0,0,0,.44-.23c0-.11-.09-.35-.21-.44-.58-.4-1.17-.81-1.78-1.15a2,2,0,0,1-.18-3.55,3.61,3.61,0,0,1,3.23-.51,7.7,7.7,0,0,0,1.79.45,4.57,4.57,0,0,0,1.91-.31,1.35,1.35,0,0,1,1.25,0,8.06,8.06,0,0,1,.83.42,6.22,6.22,0,0,1,.64.59c2.65-1.11,5.46-2.28,8.24-3.47a6.11,6.11,0,0,1,3.16-.54,24.23,24.23,0,0,0,7.9-.86,12.42,12.42,0,0,1,4.62-.31,8.59,8.59,0,0,1,4.37,2.12,2.28,2.28,0,0,0,.92.36,18,18,0,0,1,2.87.73c1.92.85,3.77,1.87,5.66,2.79.73.35,1.53.58,2.27.92a20.85,20.85,0,0,1,2.35,1.21,1.66,1.66,0,0,1,.74,1.85,1.71,1.71,0,0,1-1.38,1.29c-2.75.79-5.49,1.6-8.24,2.36-.46.13-.73.29-.62.8.14.71-.24,1.05-.85,1.27-.2.07-.4.19-.61.26a.88.88,0,0,0-.66.93,2.52,2.52,0,0,1-1.27,2.07c-.92.65-1.81,1.33-2.74,2a1.75,1.75,0,0,1-.87.27q-2.43,0-4.86,0a1.34,1.34,0,0,1-1.33-.79,1.45,1.45,0,0,0-2-.78,14.66,14.66,0,0,0-1.55.61,8.89,8.89,0,0,1-5.59.58,5.74,5.74,0,0,0-4.24.61c-.89.5-1.74,1.07-2.6,1.61a4,4,0,0,1-5.62-.85c-.37-.44-.73-.9-1.09-1.34l-.28.18c-.09.75-.17,1.5-.26,2.33l-4.79-1.7c-.09.17-.17.3-.23.43a3.15,3.15,0,0,1-4.67,1.5,7.07,7.07,0,0,0-.94-.5,2.24,2.24,0,0,0-2,.28c-.89.59-1.4.58-2.14-.16-1-1.05-2.34-.91-3.62-.91-.16,0-.36.23-.48.4a12,12,0,0,0-2,6.92c.09,5.77.07,11.53.1,17.3,0,3,0,5.95.09,8.92a10.25,10.25,0,0,0,.31,1.71h.36c.14-1.21.37-2.43.39-3.64.06-3.48,0-7,0-10.45v-15l.25-.05a2.58,2.58,0,0,1,.13.6c0,2.15,0,4.3,0,6.46q0,9.72,0,19.43a11.68,11.68,0,0,0,0,1.33,1.53,1.53,0,0,0,1.56,1.52,6.17,6.17,0,0,0,.86,0h5.7c.17,1,0,2.06.87,2.82a2.74,2.74,0,0,0,1-2.68h3v6.31h7.91v11h3.78V69l4.44-.24V51.69c0-.84.09-1,.92-1l12.07-1.25v5.55l3.3.31V67.53h5.21c0-.25,0-.48,0-.72,0-3.3,0-6.61,0-9.91,0-1.68.11-1.78,1.76-1.79H156V43.4c1.81,0,3.53,0,5.25,0,.54,0,1,.65,1,1.44s.05,1.51.05,2.27c0,1.06,0,2.12,0,3.24.68.11,1.32.23,2,.29.37,0,.48.18.48.54,0,1.58,0,3.15,0,4.73,0,.31,0,.62,0,.93a1.19,1.19,0,0,0,1.36,1.28c1.53,0,3.07,0,4.6,0,1.93,0,2,.11,2,2,0,1.4,0,2.79,0,4.25l2.74.45v5.32h3.76v-.79q0-8.12,0-16.24a4.51,4.51,0,0,1,2.56-3.5c.93-.28,1.88-.48,2.81-.72.21-1.52.43-1.68,2.55-1.76a5.92,5.92,0,0,1-.61-.81,3.72,3.72,0,0,1-.51-1.2c-.15-1,.37-1.49,1.4-1.27a6.89,6.89,0,0,0,3.83-.47,41.13,41.13,0,0,1,5.11-1.66,6.87,6.87,0,0,1,6.24,1.68c.8.7,1.71,1.27,2.56,1.91a7.73,7.73,0,0,1,.77.62,1.41,1.41,0,0,1-.67,2.45,4.76,4.76,0,0,0-3.34,2.79c-.12.26-.23.53-.35.79a2.39,2.39,0,0,1-3.32,1.53,5.68,5.68,0,0,0-4.08.05c-1,.31-2,.83-2.93,1.22a2.12,2.12,0,0,1-1.07.17c-1-.21-2-.49-3-.75-1.14,1.31-1.41,1.36-3.08.77a9.42,9.42,0,0,0-1.79-.46c-1.21-.19-1.72.23-1.74,1.45,0,3.42-.06,6.83-.08,10.25,0,.87,0,1.73,0,2.6a1.4,1.4,0,0,0,.67,1.38,1.9,1.9,0,0,0,.6-1.57,6.16,6.16,0,0,1,1.66-5c.12-.12.26-.23.47-.41l.47,1.66,2.17-1.91c.14.62.26,1.15.4,1.8l2-1.76.43,1.75,2-1.74.6,1.63,2-1.72c.12.6.23,1.1.36,1.71l1.64-1.34c.19.55.37,1.06.59,1.66l1.92-1.82c.17.64.31,1.19.48,1.82L201,63.1l.37,1.81,1.92-1.65c.22.55.42,1,.64,1.6l1.87-1.71.52,1.91,2-1.73.44,1.76,2-1.75.61,2.14L213,62.79,213.7,65l2-1.73L216,65.2l2.11-1.92a5.7,5.7,0,0,1,.06.58c0,1.87,0,3.73-.06,5.59,0,1.44.5,2,1.92,2q1.34,0,2.67-.09c1,0,1.22-.24,1.22-1.24,0-2.39,0-4.79-.08-7.18,0-1.67-.16-3.33-.18-5a5.36,5.36,0,0,1,.31-1.82,3.68,3.68,0,0,1,3.75-2.5,3.88,3.88,0,0,1,3.09,3.68c0,3,0,6,0,9.06,0,1.19-.1,2.39-.15,3.59s.31,1.44,1.4,1.45l5.18,0c1.2,0,1.68-.4,1.73-1.6s0-2.13,0-3.2q0-16.67,0-33.34c0-.22,0-.44,0-.69.65-.11,1.25-.23,1.87-.31.36-.05.51-.19.57-.58.23-1.32.24-1.32,1.62-1.32h1a13.29,13.29,0,0,1,.29,1.39c0,.45.26.52.65.52h8.85v25h4.81c.08,1.59.15,3.09.22,4.65h4.43V57.38c.89,0,1.7-.06,2.51,0,1.59.14,2.23-.38,2.23-2,0-2.75-.05-5.5,0-8.25,0-4.91-.06-9.81.13-14.71a56.4,56.4,0,0,1,1-6.76c.21-1.31.41-2.62.61-3.94a10.79,10.79,0,0,1,2.15-4.45,1.36,1.36,0,0,1,1.67-.46c.49.17,1,.38,1.54.6-.25-1.45-.35-2.79,1.55-3.13-.06-.76-.13-1.48-.17-2.21-.1-1.38.27-1.78,1.64-1.74.73,0,1.46.11,2.19.12a.84.84,0,0,0,.62-.23,4.77,4.77,0,0,1,2.75-1.75c1.46-.39,2.92-.79,4.4-1a2.48,2.48,0,0,1,1.7.53c1.92,1.53,3.79,3.14,5.64,4.76a1.85,1.85,0,0,1-.51,3.17,5.78,5.78,0,0,0-3.52,3.8,9,9,0,0,1-1.3,2.13,1.5,1.5,0,0,1-2.13.41c-1.09-.7-2.18-.29-3.28-.19a4.11,4.11,0,0,0-2.88,1.46c-.93,1.08-1.46,1-2.31-.14l-.34-.45c-.12.4-.21.72-.33,1.11-.37-.23-.71-.42-1-.64s-.63-.2-.83.23c-.43,1-.75,1.06-1.69.59a12.08,12.08,0,0,0-1.51-.69c-1.43-.48-2.42.38-2.23,1.91.09.81.21,1.63.22,2.44q0,11.42,0,22.84v5.61h9.7V50.7l4.52-.24V45.93c0-1.29.32-1.59,1.62-1.57l4.13,0h.73v29.3l3.27.33c.09.71.15,1.42.28,2.11,0,.19.28.48.43.48,2.44,0,4.88,0,7.39,0,.06-.67.13-1.3.17-1.93,0-.46.13-.74.68-.75a13.73,13.73,0,0,0,1.69-.27V65.32h6.91c0,.17,0,.35,0,.52q0,5.66,0,11.31c0,.82.16.95,1.19,1v7.32H0Zm66.77-4.62L64.2,70.72l-.13,0c-.08,1.53-.17,3.06-.25,4.63H69.2V70.6C68.35,72,67.59,73.23,66.77,74.55Zm160.7-3.82-2.62-3.94-.14.06c-.09,1.44-.17,2.88-.26,4.33H230c0-1.15,0-2.23,0-3.32a2.6,2.6,0,0,0-.21-.69,2.53,2.53,0,0,0-.53.5C228.66,68.65,228.1,69.65,227.47,70.73ZM268.78,56.9h.16V29.28h-.16Z"/><path class="cls-1" d="M383.24,15.33A30.92,30.92,0,0,0,327.61,20l5.45.11a26.06,26.06,0,0,1,42.21-7.35,25.4,25.4,0,0,1,4.09,5.42l-4,2.93,12.33,2.84V12.08Z"/></g></g></svg>