<svg xmlns="http://www.w3.org/2000/svg" viewBox="0 0 27 25"><defs><style>.cls-1{fill:#d7d7d8;stroke:#d7d7d8;stroke-miterlimit:10;}</style></defs><g id="圖層_2" data-name="圖層 2"><g id="Layer_1" data-name="Layer 1"><path class="cls-1" d="M13.5,14.05A6.7,6.7,0,0,1,6.9,7.28,6.7,6.7,0,0,1,13.5.5a6.7,6.7,0,0,1,6.6,6.78A6.7,6.7,0,0,1,13.5,14.05Zm0-11.8a5,5,0,0,0-4.89,5,5,5,0,0,0,4.89,5,5,5,0,0,0,4.89-5A5,5,0,0,0,13.5,2.25Z"/><path class="cls-1" d="M25.65,24.5H1.35a.83.83,0,0,1-.63-.3.84.84,0,0,1-.21-.68c.7-6,3.35-9.1,8.1-9.42a.86.86,0,0,1,.56.17,7,7,0,0,0,8.65,0,.88.88,0,0,1,.57-.17c4.74.31,7.4,3.4,8.1,9.42a.84.84,0,0,1-.21.68A.83.83,0,0,1,25.65,24.5ZM2.34,22.75H24.66c-.72-4.39-2.63-6.54-6.09-6.87a8.67,8.67,0,0,1-10.15,0C5,16.21,3.06,18.36,2.34,22.75Z"/></g></g></svg>