<svg xmlns="http://www.w3.org/2000/svg" viewBox="0 0 51.75 46.35"><defs><style>.cls-1{fill:#d7d7d8;}</style></defs><g id="圖層_2" data-name="圖層 2"><g id="Layer_1" data-name="Layer 1"><path class="cls-1" d="M.63,17.2S-3.13,7.91,7.74,1.84c4.89-2.72,11.87-2.46,16.34,1A19.73,19.73,0,0,1,29.21,8.7c2,3.22,3.51,6.71,5.51,9.94,1.54,2.48,4.23,6.09,6.52,7,0,0,3.29,2.26,10.51-.17a8.41,8.41,0,0,0-.57,1,5.89,5.89,0,0,1-1.6,1.38,11,11,0,0,1-7.47,1.39c-7.18-1.14-9.72-7.45-13-12.95-2.45-4.07-5.69-7.87-10.34-9.4a15.84,15.84,0,0,0-6.83-.7S2.14,6.45.63,17.2"/><path class="cls-1" d="M19.85,40.32a11.85,11.85,0,0,1-6.26-2.11c-5.8-3.63-7.15-12.53-3-18.93,3.21-4.92,10.16-7.16,14.88-7.07l1.26,1.59c-6.67-.32-12.39,2.38-14.87,6.35C8.2,26,9.05,33.88,14.26,37.14c4.75,2.71,11.17,1.93,15.36-3.77a17,17,0,0,0,2.65-10.48l1.35,2A15.24,15.24,0,0,1,31.08,34a13,13,0,0,1-11.23,6.28"/><path class="cls-1" d="M35.58,27l0,.36,0,.21a14.89,14.89,0,0,1-2.66,7.54c-4.54,6.53-13.26,8.33-19.47,4a13,13,0,0,1-3-3,13.45,13.45,0,0,1-1.49-2.4,13.41,13.41,0,0,1-1-3.49,14.76,14.76,0,0,1,2.51-10.8A14.44,14.44,0,0,1,25,13.34c.46,0,.92,0,1.39,0,0,0-.26-.39-.68-.91l-.28-.34A6.23,6.23,0,0,0,22.64,10a20.25,20.25,0,0,0-3.95-.44A18.31,18.31,0,0,0,1.22,28.14q0,.83.09,1.65a18.28,18.28,0,0,0,13.39,16,25.39,25.39,0,0,0,7.64.41A18.5,18.5,0,0,0,38,28.6,14.06,14.06,0,0,1,35.58,27"/></g></g></svg>