<svg xmlns="http://www.w3.org/2000/svg" xmlns:xlink="http://www.w3.org/1999/xlink" viewBox="0 0 183 46.35"><defs><style>.cls-1{fill:none;}.cls-2{opacity:0.8;}.cls-3{clip-path:url(#clip-path);}.cls-4{fill:#d7d7d8;}</style><clipPath id="clip-path" transform="translate(0 0)"><rect class="cls-1" width="183" height="46.36"/></clipPath></defs><g id="圖層_2" data-name="圖層 2"><g id="Layer_1" data-name="Layer 1"><g class="cls-2"><g class="cls-3"><path class="cls-4" d="M.63,17.2S-3.13,7.91,7.74,1.84c4.89-2.72,11.87-2.46,16.34,1A19.73,19.73,0,0,1,29.21,8.7c2,3.22,3.51,6.71,5.51,9.94,1.54,2.48,4.23,6.09,6.52,7,0,0,3.29,2.26,10.51-.17a8.41,8.41,0,0,0-.57,1,5.89,5.89,0,0,1-1.6,1.38,11,11,0,0,1-7.47,1.39c-7.19-1.14-9.72-7.45-13-12.95-2.45-4.07-5.69-7.87-10.34-9.4a15.84,15.84,0,0,0-6.83-.7S2.14,6.45.63,17.2" transform="translate(0 0)"/><path class="cls-4" d="M19.85,40.32a11.85,11.85,0,0,1-6.26-2.11c-5.8-3.63-7.15-12.53-3-18.93,3.21-4.92,10.16-7.16,14.88-7.07l1.26,1.59c-6.67-.32-12.39,2.38-14.87,6.35C8.2,26,9.05,33.88,14.26,37.14c4.75,2.71,11.17,1.93,15.36-3.77a17,17,0,0,0,2.65-10.48l1.35,2A15.24,15.24,0,0,1,31.08,34a13,13,0,0,1-11.23,6.28" transform="translate(0 0)"/><path class="cls-4" d="M35.58,27l0,.36,0,.21a14.89,14.89,0,0,1-2.66,7.54c-4.54,6.53-13.26,8.33-19.47,4a13,13,0,0,1-3-3,13.45,13.45,0,0,1-1.49-2.4,13.41,13.41,0,0,1-1-3.49,14.76,14.76,0,0,1,2.51-10.8A14.44,14.44,0,0,1,25,13.34c.45,0,.92,0,1.39,0,0,0-.26-.39-.68-.91l-.28-.34A6.23,6.23,0,0,0,22.64,10a20.25,20.25,0,0,0-3.95-.44A18.31,18.31,0,0,0,1.22,28.14q0,.83.09,1.65a18.28,18.28,0,0,0,13.39,16,25.39,25.39,0,0,0,7.64.41A18.5,18.5,0,0,0,38,28.6,14.06,14.06,0,0,1,35.58,27" transform="translate(0 0)"/><path class="cls-4" d="M52.87,35.92l10-22.46,3.68,0L77,36.05l-3.89,0-3-6.84-10.8-.06L56.5,35.94Zm7.5-9.21,8.75.05-2.66-6.25q-1.21-2.85-1.8-4.68a26,26,0,0,1-1.42,4.29Z" transform="translate(0 0)"/><path class="cls-4" d="M78.46,37l-5.91,0-3-6.83L60,30,57.1,36.85l-5.62,0L62.32,12.55h2.17l0-.12,0,.12h2.61Zm-4.72-1.84h1.87L66,14.38h-.87l.38,1.17c.38,1.19,1,2.74,1.78,4.6l3.2,7.52L59,27.61l3.42-7.85a24.93,24.93,0,0,0,1.36-4.13l.3-1.26H63.5L54.27,35H55.9l2.87-6.81,12,.07Zm-12-9.31,6,0-2.12-5c-.33-.76-.62-1.47-.88-2.13-.2.58-.43,1.16-.67,1.74Z" transform="translate(0 0)"/><path class="cls-4" d="M82.52,36.08l.12-22.52,11.45.07a17.24,17.24,0,0,1,5.24.63,5.57,5.57,0,0,1,2.86,2.16,5.78,5.78,0,0,1,1.06,3.4,5.31,5.31,0,0,1-1.8,4,9.7,9.7,0,0,1-5.51,2.06A9,9,0,0,1,98,27a16.41,16.41,0,0,1,2.82,3l4.45,6.15-4.29,0-3.39-4.71c-1-1.35-1.81-2.39-2.45-3.11a7.38,7.38,0,0,0-1.73-1.52,5.71,5.71,0,0,0-1.55-.6A10.67,10.67,0,0,0,90,26.12l-4,0,0,10ZM86,23.52l7.34,0A12.28,12.28,0,0,0,97,23.15a3.79,3.79,0,0,0,2-1.34,3.34,3.34,0,0,0,.7-2,3.2,3.2,0,0,0-1.32-2.63,6.8,6.8,0,0,0-4.19-1.06l-8.17,0Z" transform="translate(0 0)"/><path class="cls-4" d="M107.06,37.12l-6.55,0L96.85,32c-1-1.31-1.77-2.34-2.39-3A6.61,6.61,0,0,0,93,27.63a4.75,4.75,0,0,0-1.3-.51A10.28,10.28,0,0,0,90,27l-3.06,0,0,10-5.23,0,.13-24.33,12.35.07a18.13,18.13,0,0,1,5.54.68,6.57,6.57,0,0,1,3.31,2.5,6.81,6.81,0,0,1,1.22,3.92,6.2,6.2,0,0,1-2.1,4.7,8.58,8.58,0,0,1-3.5,1.81,17,17,0,0,1,3,3.18Zm-5.62-1.85h2l-3.41-4.7a15.49,15.49,0,0,0-2.65-2.84,8.7,8.7,0,0,0-1.84-1l-3.16-1.35L95.84,25a8.92,8.92,0,0,0,5-1.82,4.4,4.4,0,0,0,1.5-3.37,4.88,4.88,0,0,0-.89-2.88A4.7,4.7,0,0,0,99,15.12a16.45,16.45,0,0,0-5-.59l-10.54,0-.11,20.69H85l0-10,4.87,0a12.12,12.12,0,0,1,2.06.14,6.65,6.65,0,0,1,1.84.7,8.37,8.37,0,0,1,2,1.71c.66.74,1.5,1.81,2.5,3.18Zm-8-10.81h0l-8.4,0,0-9.26,9.08.05A7.6,7.6,0,0,1,99,16.45a4.06,4.06,0,0,1,1.66,3.35,4.23,4.23,0,0,1-.87,2.56A4.78,4.78,0,0,1,97.29,24a13,13,0,0,1-3.8.44m-6.57-1.84,6.57,0a11.42,11.42,0,0,0,3.25-.36,2.88,2.88,0,0,0,1.56-1,2.37,2.37,0,0,0,.52-1.48,2.27,2.27,0,0,0-1-1.91A6.09,6.09,0,0,0,94.21,17L87,17Z" transform="translate(0 0)"/><path class="cls-4" d="M129.68,28.44l3.42.77a10,10,0,0,1-3.9,5.58,11.81,11.81,0,0,1-6.84,1.89,13.72,13.72,0,0,1-6.78-1.52,9.69,9.69,0,0,1-4-4.32,13.51,13.51,0,0,1-1.33-6,11.84,11.84,0,0,1,1.57-6.13,10,10,0,0,1,4.41-4,14.15,14.15,0,0,1,6.26-1.32,11.61,11.61,0,0,1,6.51,1.75A9,9,0,0,1,132.71,20l-3.37.67a6.91,6.91,0,0,0-2.59-3.59,7.61,7.61,0,0,0-4.29-1.15,9.27,9.27,0,0,0-5,1.22,6.69,6.69,0,0,0-2.83,3.33,11.84,11.84,0,0,0-.83,4.31,12.19,12.19,0,0,0,.93,5,6.44,6.44,0,0,0,3,3.22,9.11,9.11,0,0,0,4.38,1.08A8.12,8.12,0,0,0,127,32.71a7.22,7.22,0,0,0,2.71-4.27" transform="translate(0 0)"/><path class="cls-4" d="M122.45,37.58h-.09a14.49,14.49,0,0,1-7.23-1.64,10.56,10.56,0,0,1-4.32-4.71,14.53,14.53,0,0,1-1.42-6.43,12.74,12.74,0,0,1,1.7-6.59,10.87,10.87,0,0,1,4.8-4.31,15.21,15.21,0,0,1,6.56-1.41h.1a12.59,12.59,0,0,1,7,1.9,10,10,0,0,1,4,5.33l.32,1-5.14,1-.27-.73a6.12,6.12,0,0,0-2.23-3.15,6.87,6.87,0,0,0-3.8-1h-.07A8.45,8.45,0,0,0,118,17.93a5.78,5.78,0,0,0-2.45,2.89,10.94,10.94,0,0,0-.78,4,11.29,11.29,0,0,0,.86,4.65,5.56,5.56,0,0,0,2.56,2.78,8.5,8.5,0,0,0,4,1h0A7.26,7.26,0,0,0,126.44,32a6.26,6.26,0,0,0,2.36-3.76l.22-.85,5.22,1.18-.27.93a10.88,10.88,0,0,1-4.26,6.07,12.68,12.68,0,0,1-7.26,2m0-23.28a13.51,13.51,0,0,0-5.79,1.24,9.05,9.05,0,0,0-4,3.6,11,11,0,0,0-1.45,5.67,12.72,12.72,0,0,0,1.25,5.64A8.61,8.61,0,0,0,116,34.37a13,13,0,0,0,6.33,1.4h.08A10.86,10.86,0,0,0,128.69,34a8.68,8.68,0,0,0,3.22-4.17l-1.6-.36a7.73,7.73,0,0,1-2.82,3.93A8.9,8.9,0,0,1,122.16,35h-.07a10.28,10.28,0,0,1-4.8-1.19,7.4,7.4,0,0,1-3.37-3.65,13.16,13.16,0,0,1-1-5.39,12.86,12.86,0,0,1,.9-4.65A7.58,7.58,0,0,1,117,16.39,10.11,10.11,0,0,1,122.38,15h.08a8.59,8.59,0,0,1,4.79,1.29,7.41,7.41,0,0,1,2.65,3.31l1.57-.31a7.83,7.83,0,0,0-2.92-3.42,10.86,10.86,0,0,0-6-1.61Z" transform="translate(0 0)"/><polygon class="cls-4" points="139.83 36.39 139.95 13.87 143.37 13.89 143.26 33.75 155.97 33.82 155.96 36.47 139.83 36.39"/><path class="cls-4" d="M156.86,37.39l-17.94-.1L139.05,13l5.23,0-.11,19.85,12.72.07Zm-16.12-1.91,14.32.08v-.84l-12.71-.07.1-19.86h-1.6Z" transform="translate(0 0)"/><polygon class="cls-4" points="162.8 36.51 162.93 14 181.59 14.1 181.58 16.75 166.33 16.67 166.29 23.57 180.57 23.64 180.56 26.29 166.28 26.21 166.24 33.87 182.09 33.96 182.07 36.61 162.8 36.51"/><path class="cls-4" d="M183,37.53l-21.08-.12L162,13.09l20.49.11,0,4.47-15.25-.09,0,5.08,14.28.08,0,4.46-14.28-.08,0,5.85,15.85.09Zm-19.25-1.92,17.45.09v-.84l-15.85-.09.05-9.47,14.29.07v-.82l-14.28-.08.05-8.71,15.25.08V15l-16.85-.09Z" transform="translate(0 0)"/></g></g></g></g></svg>